<svg width="159" height="32" viewBox="0 0 159 32" fill="none" xmlns="http://www.w3.org/2000/svg">
    <g clip-path="url(#clip0_95_1163)">
        <path
            d="M42.5262 24.4351H38.9137V7.5647H44.7183C45.7776 7.5647 46.7332 7.67759 47.585 7.90224C48.4357 8.12689 49.1622 8.46895 49.7647 8.92616C50.3671 9.38337 50.8286 9.9704 51.149 10.685C51.4705 11.3996 51.6307 12.2395 51.6307 13.2036C51.6307 14.1677 51.466 14.9952 51.1366 15.7346C50.8071 16.474 50.3299 17.0961 49.7038 17.6018C49.0776 18.1076 48.3149 18.4936 47.4158 18.7589C46.5166 19.0242 45.5046 19.1563 44.3809 19.1563H42.5262V24.434V24.4351ZM42.454 15.9762H44.4294C45.5215 15.9762 46.3722 15.7639 46.9826 15.3372C47.5929 14.9116 47.8975 14.249 47.8975 13.3492C47.8975 12.4009 47.5997 11.7304 47.0062 11.3375C46.4128 10.9435 45.561 10.7471 44.4531 10.7471H42.454V15.9762Z"
            fill="white"></path>
        <path
            d="M62.5641 24.7242C61.3434 24.7242 60.2321 24.5345 59.228 24.1575C58.225 23.7804 57.362 23.2216 56.6388 22.4822C55.9156 21.7439 55.3583 20.8317 54.9646 19.7468C54.5708 18.6619 54.3745 17.4134 54.3745 16C54.3745 14.5866 54.5787 13.3369 54.9883 12.252C55.3978 11.1671 55.963 10.2561 56.6862 9.51667C57.4094 8.77723 58.2634 8.21955 59.2517 7.84137C60.2389 7.46431 61.3107 7.27466 62.4671 7.27466C63.7679 7.27466 64.9277 7.4756 65.9475 7.87749C66.9663 8.27939 67.826 8.85287 68.5243 9.60021C69.2227 10.3475 69.7563 11.2631 70.1264 12.348C70.4953 13.4328 70.6803 14.6498 70.6803 15.9989C70.6803 17.4924 70.4761 18.7906 70.0666 19.8913C69.6571 20.992 69.0873 21.8997 68.3562 22.6142C67.6252 23.3288 66.7666 23.8594 65.7794 24.2049C64.7923 24.5503 63.7205 24.723 62.5641 24.723V24.7242ZM62.6848 21.5429C63.2952 21.5429 63.857 21.43 64.3703 21.2054C64.8837 20.9807 65.3259 20.6387 65.6948 20.1815C66.0637 19.7242 66.3492 19.1496 66.55 18.4587C66.7508 17.7678 66.8512 16.9483 66.8512 16C66.8512 14.0876 66.4496 12.6866 65.6474 11.7948C64.8442 10.903 63.7848 10.457 62.4682 10.457C61.8736 10.457 61.3163 10.5699 60.7939 10.7946C60.2716 11.0192 59.8192 11.3613 59.4333 11.8185C59.0475 12.2757 58.7474 12.8548 58.5297 13.5536C58.313 14.2524 58.2047 15.0686 58.2047 16C58.2047 16.9313 58.3209 17.7678 58.5545 18.4587C58.7869 19.1496 59.1039 19.7242 59.5055 20.1815C59.9072 20.6398 60.381 20.9807 60.9271 21.2054C61.4731 21.43 62.0598 21.5429 62.6859 21.5429H62.6848Z"
            fill="white"></path>
        <path
            d="M86.8654 23.767C86.6397 23.8787 86.396 23.9905 86.1309 24.1022C85.8658 24.214 85.5522 24.3179 85.1911 24.4138C84.8301 24.5098 84.4127 24.5854 83.9388 24.6407C83.465 24.696 82.9235 24.7243 82.3131 24.7243C81.0281 24.7243 79.8604 24.5391 78.8089 24.17C77.7575 23.8008 76.8583 23.2578 76.1114 22.5432C75.3646 21.8286 74.7869 20.9402 74.3774 19.8801C73.9678 18.8201 73.7625 17.5986 73.7625 16.2168C73.7625 14.835 73.9678 13.4894 74.3774 12.3729C74.7869 11.2564 75.377 10.3205 76.1475 9.5653C76.9181 8.81006 77.8534 8.23997 78.9533 7.85388C80.0533 7.46779 81.2932 7.27588 82.6753 7.27588C83.5902 7.27588 84.4127 7.35603 85.1438 7.51634C85.8737 7.67664 86.4637 7.86178 86.9139 8.07063L86.1185 11.1074C85.6041 10.9313 85.0828 10.8026 84.5526 10.7213C84.0223 10.6412 83.5654 10.6005 83.1796 10.6005C82.3447 10.6005 81.5865 10.7055 80.904 10.9143C80.2214 11.1243 79.6348 11.4494 79.1451 11.8931C78.6555 12.3356 78.2742 12.9001 78.0011 13.5842C77.7281 14.2695 77.5927 15.0778 77.5927 16.0114C77.5927 17.7984 78.0937 19.143 79.0977 20.0449C80.1007 20.9469 81.4534 21.3974 83.1559 21.3974C83.5417 21.3974 84.0065 21.3454 84.5526 21.2405C85.0986 21.1366 85.6289 20.9718 86.1422 20.746L86.8643 23.7647L86.8654 23.767Z"
            fill="white"></path>
        <path
            d="M100.593 20.7481H94.1141L92.9103 24.4351H89.3463L95.1024 7.5647H99.799L105.483 24.4351H101.798L100.594 20.7481H100.593ZM95.1024 17.5668H99.6061L97.3667 10.4818L95.1024 17.5668Z"
            fill="white"></path>
        <path d="M113.696 24.4351H110.084V10.8905H105.29V7.5647H118.465V10.8905H113.696V24.4351Z"
            fill="white"></path>
        <path
            d="M128.339 24.7242C127.119 24.7242 126.007 24.5345 125.003 24.1575C123.999 23.7804 123.137 23.2216 122.414 22.4822C121.691 21.7439 121.133 20.8317 120.739 19.7468C120.346 18.6619 120.149 17.4134 120.149 16C120.149 14.5866 120.355 13.3369 120.764 12.252C121.174 11.1671 121.74 10.2561 122.462 9.51667C123.184 8.77723 124.039 8.21955 125.027 7.84137C126.015 7.46431 127.087 7.27466 128.242 7.27466C129.543 7.27466 130.703 7.4756 131.722 7.87749C132.741 8.27939 133.601 8.85287 134.299 9.60021C134.998 10.3475 135.531 11.2631 135.901 12.348C136.27 13.4328 136.455 14.6498 136.455 15.9989C136.455 17.4924 136.251 18.7906 135.841 19.8913C135.432 20.992 134.862 21.8997 134.131 22.6142C133.4 23.3288 132.542 23.8594 131.554 24.2049C130.566 24.5503 129.495 24.723 128.339 24.723V24.7242ZM128.46 21.5429C129.069 21.5429 129.631 21.43 130.145 21.2054C130.66 20.9807 131.101 20.6387 131.47 20.1815C131.839 19.7242 132.124 19.1496 132.325 18.4587C132.526 17.7678 132.626 16.9483 132.626 16C132.626 14.0876 132.224 12.6866 131.422 11.7948C130.619 10.903 129.56 10.457 128.243 10.457C127.65 10.457 127.091 10.5699 126.569 10.7946C126.048 11.0192 125.593 11.3613 125.208 11.8185C124.822 12.2757 124.521 12.8548 124.305 13.5536C124.088 14.2524 123.98 15.0686 123.98 16C123.98 16.9313 124.096 17.7678 124.328 18.4587C124.561 19.1496 124.879 19.7242 125.28 20.1815C125.681 20.6398 126.155 20.9807 126.701 21.2054C127.247 21.43 127.832 21.5429 128.46 21.5429Z"
            fill="white"></path>
        <path
            d="M159 24.4351H155.363L154.448 13.2284L150.98 24.4351H147.535L144.115 13.277L143.2 24.4351H139.562L141.248 7.5647H145.559L149.364 20.2897L153.122 7.5647H157.288L158.999 24.4351H159Z"
            fill="white"></path>
        <path
            d="M19.3497 16.0033C19.3474 17.8604 17.8424 19.3629 15.9888 19.3618C14.134 19.3607 12.6313 17.8536 12.6324 15.9977C12.6346 14.1406 14.1408 12.638 15.9944 12.6392C17.848 12.6414 19.3508 14.1474 19.3497 16.0033Z"
            fill="white"></path>
        <path
            d="M16.0215 0C13.5981 0 11.3 0.538489 9.24103 1.50032C11.9803 1.21809 14.8256 2.3978 16.9263 4.52014H16.9286C17.9789 5.55761 18.8995 6.90327 19.6825 8.52325C24.1389 9.32139 27.1647 7.10647 28.3572 5.79581C25.4194 2.25556 20.9844 0 16.0215 0Z"
            fill="white"></path>
        <path
            d="M6.37655 3.22637C4.18108 4.88361 2.42561 7.09401 1.31885 9.64872C2.65012 9.97611 6.63491 11.2721 8.46258 16.202C9.01201 16.0225 10.1977 15.3328 11.0202 12.6685C12.0288 9.40488 13.8666 6.25523 16.2505 4.86103C13.6229 2.31421 9.63591 1.19998 6.37655 3.22637Z"
            fill="white"></path>
        <path
            d="M29.8915 24.0018C31.1032 21.9054 31.7858 19.6476 31.9809 17.3853C30.8561 19.8959 28.4102 21.7677 25.5209 22.524V22.5263C24.096 22.9158 22.468 23.0399 20.673 22.9067C17.7533 26.3623 18.1594 30.0877 18.6998 31.7754C23.2374 31.0055 27.4106 28.2961 29.8915 24.0029V24.0018Z"
            fill="white"></path>
        <path
            d="M31.9166 14.0448C31.577 11.3162 30.5391 8.69373 28.8784 6.4585C27.9285 7.44629 24.8135 10.246 19.6249 9.36205C19.5053 9.92763 19.511 11.2981 21.4086 13.3414C23.7338 15.8465 25.5457 19.0108 25.5626 21.7699C29.0849 20.7708 32.0441 17.8774 31.9166 14.0459V14.0448Z"
            fill="white"></path>
        <path
            d="M2.14807 23.9995C3.35975 26.0959 4.97533 27.8152 6.83911 29.1157C5.22466 26.8872 4.82528 23.8358 5.61389 20.9582H5.61163C5.98619 19.529 6.69244 18.0592 7.70556 16.5724C6.17009 12.3187 2.73586 10.8071 1.00408 10.4312H1.00295C-0.597957 14.7424 -0.335088 19.7074 2.14694 24.0006L2.14807 23.9995Z"
            fill="white"></path>
        <path
            d="M9.76794 30.7312C12.303 31.8025 15.0964 32.2157 17.865 31.8962C17.4837 30.5811 16.6138 26.4865 19.9747 22.4394C19.5449 22.0533 18.3535 21.3726 15.6334 21.9935C12.2996 22.7521 8.64989 22.7374 6.25022 21.3726C5.35556 24.9185 6.38335 28.9261 9.76906 30.7312H9.76794Z"
            fill="white"></path>
    </g>
    <defs>
        <clipPath id="clip0_95_1163">
            <rect width="159" height="32" fill="white"></rect>
        </clipPath>
    </defs>
</svg>